<svg width="20" height="20" viewBox="0 0 20 20" fill="currentColor" xmlns="http://www.w3.org/2000/svg">
<path fill-rule="evenodd" clip-rule="evenodd" d="M10.0001 18C14.4184 18 18.0001 14.4183 18.0001 10C18.0001 5.58172 14.4184 2 10.0001 2C5.58184 2 2.00012 5.58172 2.00012 10C2.00012 14.4183 5.58184 18 10.0001 18ZM7.00012 9C7.55241 9 8.00012 8.55228 8.00012 8C8.00012 7.44772 7.55241 7 7.00012 7C6.44784 7 6.00012 7.44772 6.00012 8C6.00012 8.55228 6.44784 9 7.00012 9ZM14.0001 8C14.0001 8.55228 13.5524 9 13.0001 9C12.4478 9 12.0001 8.55228 12.0001 8C12.0001 7.44772 12.4478 7 13.0001 7C13.5524 7 14.0001 7.44772 14.0001 8ZM13.5357 13.5354C13.9262 13.1449 13.9262 12.5118 13.5357 12.1212C13.1451 11.7307 12.512 11.7307 12.1214 12.1212C10.9499 13.2928 9.05037 13.2928 7.8788 12.1212C7.48828 11.7307 6.85511 11.7307 6.46459 12.1212C6.07406 12.5118 6.07406 13.1449 6.46459 13.5354C8.41721 15.4881 11.583 15.4881 13.5357 13.5354Z" fill="currentColor"/>
</svg>
