<svg width="20" height="20" viewBox="0 0 20 20" fill="currentColor" xmlns="http://www.w3.org/2000/svg">
<path fill-rule="evenodd" clip-rule="evenodd" d="M8.00012 4C6.34327 4 5.00012 5.34315 5.00012 7V11C5.00012 13.7614 7.2387 16 10.0001 16C12.7615 16 15.0001 13.7614 15.0001 11V7C15.0001 6.44772 15.4478 6 16.0001 6C16.5524 6 17.0001 6.44772 17.0001 7V11C17.0001 14.866 13.8661 18 10.0001 18C6.13413 18 3.00012 14.866 3.00012 11V7C3.00012 4.23858 5.2387 2 8.00012 2C10.7615 2 13.0001 4.23858 13.0001 7V11C13.0001 12.6569 11.657 14 10.0001 14C8.34327 14 7.00012 12.6569 7.00012 11V7C7.00012 6.44772 7.44784 6 8.00012 6C8.55241 6 9.00012 6.44772 9.00012 7V11C9.00012 11.5523 9.44784 12 10.0001 12C10.5524 12 11.0001 11.5523 11.0001 11V7C11.0001 5.34315 9.65698 4 8.00012 4Z" fill="currentColor"/>
</svg>
